<?xml version="1.0" encoding="utf-8"?>
<!-- Generator: Adobe Illustrator 18.0.0, SVG Export Plug-In . SVG Version: 6.00 Build 0)  -->
<!DOCTYPE svg PUBLIC "-//W3C//DTD SVG 1.1//EN" "http://www.w3.org/Graphics/SVG/1.1/DTD/svg11.dtd">
<svg version="1.1" id="Layer_1" xmlns="http://www.w3.org/2000/svg" xmlns:xlink="http://www.w3.org/1999/xlink" x="0px" y="0px"
	 viewBox="0 0 64 64" enable-background="new 0 0 64 64" xml:space="preserve">
<g>
	<g>
		<path d="M52,43.5c0-8.1-6.7-13.6-20-16.4c-10-2.1-10-5.3-10-6.6C22,17,26.7,14,32,14c4.6,0,8.3,2.2,9.2,5.4l9.6-2.8
			C49.1,10.5,43.8,6,37,4.5V0H27v4.5c-8.6,1.8-15,8.3-15,16c0,8.4,6,13.9,17.9,16.4C37.5,38.5,42,41,42,43.5C42,47,37.3,50,32,50
			c-4.6,0-8.3-2.2-9.2-5.4l-9.6,2.8c1.8,6.1,7,10.6,13.8,12.1V64h10v-4.5C45.6,57.6,52,51.2,52,43.5z"/>
	</g>
</g>
</svg>
